<mxfile host="Electron" modified="2024-04-27T01:22:58.797Z" agent="Mozilla/5.0 (Windows NT 10.0; Win64; x64) AppleWebKit/537.36 (KHTML, like Gecko) draw.io/24.2.5 Chrome/120.0.6099.109 Electron/28.1.0 Safari/537.36" etag="WgODWKkU9zmN4lYCtVlR" version="24.2.5" type="device">
  <diagram name="Página-1" id="TcyzU4v_E4Ye70UFQVvX">
    <mxGraphModel dx="1434" dy="844" grid="1" gridSize="10" guides="1" tooltips="1" connect="1" arrows="1" fold="1" page="1" pageScale="1" pageWidth="827" pageHeight="1169" math="0" shadow="0">
      <root>
        <mxCell id="0" />
        <mxCell id="1" parent="0" />
        <mxCell id="aE1ZynWs8wEs6TyrD2hM-4" style="edgeStyle=orthogonalEdgeStyle;rounded=0;orthogonalLoop=1;jettySize=auto;html=1;entryX=0.5;entryY=0;entryDx=0;entryDy=0;" edge="1" parent="1" source="b-ft10OGIP7F055xWLEF-1" target="b-ft10OGIP7F055xWLEF-10">
          <mxGeometry relative="1" as="geometry" />
        </mxCell>
        <mxCell id="b-ft10OGIP7F055xWLEF-1" value="Inicio Calcular IVA mejorado" style="strokeWidth=2;html=1;shape=mxgraph.flowchart.terminator;whiteSpace=wrap;" parent="1" vertex="1">
          <mxGeometry x="300" y="30" width="200" height="60" as="geometry" />
        </mxCell>
        <mxCell id="b-ft10OGIP7F055xWLEF-2" value="Fin Calcular IVA mejorado" style="strokeWidth=2;html=1;shape=mxgraph.flowchart.terminator;whiteSpace=wrap;" parent="1" vertex="1">
          <mxGeometry x="295" y="685" width="200" height="60" as="geometry" />
        </mxCell>
        <mxCell id="b-ft10OGIP7F055xWLEF-10" value="precio" style="shape=parallelogram;perimeter=parallelogramPerimeter;whiteSpace=wrap;html=1;fixedSize=1;" parent="1" vertex="1">
          <mxGeometry x="340" y="160" width="120" height="60" as="geometry" />
        </mxCell>
        <mxCell id="aE1ZynWs8wEs6TyrD2hM-6" style="edgeStyle=orthogonalEdgeStyle;rounded=0;orthogonalLoop=1;jettySize=auto;html=1;entryX=0.5;entryY=0;entryDx=0;entryDy=0;" edge="1" parent="1" source="b-ft10OGIP7F055xWLEF-12" target="b-ft10OGIP7F055xWLEF-22">
          <mxGeometry relative="1" as="geometry" />
        </mxCell>
        <mxCell id="b-ft10OGIP7F055xWLEF-12" value="iva&amp;nbsp;&lt;div&gt;(21 ó 10.5)&lt;br&gt;&lt;/div&gt;" style="shape=parallelogram;perimeter=parallelogramPerimeter;whiteSpace=wrap;html=1;fixedSize=1;" parent="1" vertex="1">
          <mxGeometry x="320" y="290" width="140" height="60" as="geometry" />
        </mxCell>
        <mxCell id="b-ft10OGIP7F055xWLEF-18" value="precio_con_iva" style="shape=document;whiteSpace=wrap;html=1;boundedLbl=1;" parent="1" vertex="1">
          <mxGeometry x="335" y="555" width="120" height="80" as="geometry" />
        </mxCell>
        <mxCell id="b-ft10OGIP7F055xWLEF-19" style="edgeStyle=orthogonalEdgeStyle;rounded=0;orthogonalLoop=1;jettySize=auto;html=1;entryX=0.5;entryY=0;entryDx=0;entryDy=0;entryPerimeter=0;" parent="1" source="b-ft10OGIP7F055xWLEF-18" target="b-ft10OGIP7F055xWLEF-2" edge="1">
          <mxGeometry relative="1" as="geometry" />
        </mxCell>
        <mxCell id="b-ft10OGIP7F055xWLEF-22" value="precio_con_iva = precio * iva /100 + precio" style="whiteSpace=wrap;html=1;strokeWidth=2;" parent="1" vertex="1">
          <mxGeometry x="255" y="425" width="270" height="60" as="geometry" />
        </mxCell>
        <mxCell id="b-ft10OGIP7F055xWLEF-29" style="edgeStyle=orthogonalEdgeStyle;rounded=0;orthogonalLoop=1;jettySize=auto;html=1;entryX=0.457;entryY=0.018;entryDx=0;entryDy=0;entryPerimeter=0;" parent="1" source="b-ft10OGIP7F055xWLEF-22" target="b-ft10OGIP7F055xWLEF-18" edge="1">
          <mxGeometry relative="1" as="geometry" />
        </mxCell>
        <mxCell id="aE1ZynWs8wEs6TyrD2hM-5" style="edgeStyle=orthogonalEdgeStyle;rounded=0;orthogonalLoop=1;jettySize=auto;html=1;entryX=0.571;entryY=0.05;entryDx=0;entryDy=0;entryPerimeter=0;" edge="1" parent="1" source="b-ft10OGIP7F055xWLEF-10" target="b-ft10OGIP7F055xWLEF-12">
          <mxGeometry relative="1" as="geometry" />
        </mxCell>
      </root>
    </mxGraphModel>
  </diagram>
</mxfile>
